<?xml version="1.0" encoding="utf-8"?>
<!-- Generator: Adobe Illustrator 27.5.0, SVG Export Plug-In . SVG Version: 6.00 Build 0)  -->
<svg version="1.1" xmlns="http://www.w3.org/2000/svg" xmlns:xlink="http://www.w3.org/1999/xlink" x="0px" y="0px"
	 viewBox="0 0 500 500" style="enable-background:new 0 0 500 500;" xml:space="preserve">
<g id="Background_Simple">
	<g>
		<path style="fill:#FFFFFF;" d="M188.759,444.227c105.496,19.452,210.476-68.288,258.769-152.41
			c32.091-55.9,44.876-121.51,26.15-174.897c-13.722-39.119-48.237-77.025-99.56-78.687
			c-57.195-1.853-103.241,54.133-161.992,52.999c-58.664-1.133-128.113,22.956-161.751,66.612
			C16.748,201.485,9.88,281.095,38.483,342.859c16.308,35.214,45.179,65.374,82.71,83.677
			c20.626,10.058,42.912,12.915,66.275,17.446C187.898,444.066,188.328,444.147,188.759,444.227z"/>
		<path style="opacity:0.8;fill:#FFFFFF;" d="M188.759,444.227c105.496,19.452,210.476-68.288,258.769-152.41
			c32.091-55.9,44.876-121.51,26.15-174.897c-13.722-39.119-48.237-77.025-99.56-78.687
			c-57.195-1.853-103.241,54.133-161.992,52.999c-58.664-1.133-128.113,22.956-161.751,66.612
			C16.748,201.485,9.88,281.095,38.483,342.859c16.308,35.214,45.179,65.374,82.71,83.677
			c20.626,10.058,42.912,12.915,66.275,17.446C187.898,444.066,188.328,444.147,188.759,444.227z"/>
	</g>
</g>
<g id="Devices">
	<g>
		<g>
			
				<rect x="54" y="73.93" style="fill:none;stroke:#263238;stroke-linecap:round;stroke-linejoin:round;stroke-miterlimit:10;" width="28" height="397.382"/>
			
				<rect x="35" y="180.201" style="fill:none;stroke:#263238;stroke-linecap:round;stroke-linejoin:round;stroke-miterlimit:10;" width="66" height="109"/>
			<g>
				
					<rect x="39.811" y="231.604" style="fill:#e887a0;stroke:#6d28d9;stroke-linecap:round;stroke-linejoin:round;stroke-miterlimit:10;" width="8.074" height="9.869"/>
				
					<rect x="39.811" y="260.69" style="fill:#e887a0;stroke:#6d28d9;stroke-linecap:round;stroke-linejoin:round;stroke-miterlimit:10;" width="8.074" height="9.869"/>
				
					<rect x="39.811" y="246.147" style="fill:#e887a0;stroke:#6d28d9;stroke-linecap:round;stroke-linejoin:round;stroke-miterlimit:10;" width="8.074" height="9.869"/>
				
					<rect x="39.811" y="186.434" style="fill:#e887a0;stroke:#6d28d9;stroke-linecap:round;stroke-linejoin:round;stroke-miterlimit:10;" width="8.074" height="11.409"/>
				
					<rect x="39.811" y="217.061" style="fill:#e887a0;stroke:#6d28d9;stroke-linecap:round;stroke-linejoin:round;stroke-miterlimit:10;" width="8.074" height="9.869"/>
				
					<rect x="39.811" y="275.234" style="fill:#e887a0;stroke:#6d28d9;stroke-linecap:round;stroke-linejoin:round;stroke-miterlimit:10;" width="8.074" height="9.812"/>
				
					<rect x="39.811" y="202.518" style="fill:#e887a0;stroke:#6d28d9;stroke-linecap:round;stroke-linejoin:round;stroke-miterlimit:10;" width="8.074" height="9.869"/>
			</g>
		</g>
		<path style="fill:none;stroke:#FFFFFF;stroke-linecap:round;stroke-linejoin:round;stroke-miterlimit:10;" d="M94.111,73.707
			H43.73V53.45c0-4.59,3.721-8.31,8.31-8.31h33.761c4.59,0,8.31,3.721,8.31,8.31V73.707z"/>
	</g>
	<g>
		<polyline style="fill:none;stroke:#263238;stroke-linecap:round;stroke-linejoin:round;stroke-miterlimit:10;" points="
			244.674,87.673 244.674,150.626 168.58,150.626 168.58,87.673 		"/>
		<polyline style="fill:none;stroke:#263238;stroke-linecap:round;stroke-linejoin:round;stroke-miterlimit:10;" points="
			252.333,11.897 252.333,87.626 160.92,87.626 160.92,11.897 		"/>
		
			<rect x="175.419" y="150.686" style="fill:none;stroke:#263238;stroke-linecap:round;stroke-linejoin:round;stroke-miterlimit:10;" width="62.415" height="48.185"/>
		
			<rect x="183.969" y="198.932" style="fill:none;stroke:#263238;stroke-linecap:round;stroke-linejoin:round;stroke-miterlimit:10;" width="45.315" height="47.819"/>
		<path style="fill:none;stroke:#263238;stroke-linecap:round;stroke-linejoin:round;stroke-miterlimit:10;" d="M269.333,205.742
			c-14.912,0-27,12.088-27,27v14h-70v22h70h54v-22v-14C296.333,217.83,284.245,205.742,269.333,205.742z"/>
		<g>
			<path style="fill:#263238;" d="M412.33,194.901h-7v-71.57c0-1.933,1.567-3.5,3.5-3.5h30.963v7H412.33V194.901z"/>
		</g>
		<g>
			<path style="fill:#263238;" d="M412.33,268.607h-7v71.57c0,1.933,1.567,3.5,3.5,3.5h30.963v-7H412.33V268.607z"/>
		</g>
		
			<rect x="359" y="194.742" style="fill:none;stroke:#e887a0;stroke-linecap:round;stroke-linejoin:round;stroke-miterlimit:10;" width="92" height="74"/>
		
			<rect x="315.333" y="210.534" style="fill:none;stroke:#e887a0;stroke-linecap:round;stroke-linejoin:round;stroke-miterlimit:10;" width="43.667" height="58.207"/>
		
			<rect x="315.333" y="152.534" style="fill:none;stroke:#e887a0;stroke-linecap:round;stroke-linejoin:round;stroke-miterlimit:10;" width="43.667" height="58.207"/>
		
			<rect x="315.333" y="268.534" style="fill:none;stroke:#e887a0;stroke-linecap:round;stroke-linejoin:round;stroke-miterlimit:10;" width="43.667" height="58.207"/>
		
			<rect x="315.333" y="152.534" style="fill:none;stroke:#e887a0;stroke-linecap:round;stroke-linejoin:round;stroke-miterlimit:10;" width="43.667" height="10"/>
		
			<line style="fill:none;stroke:#e887a0;stroke-linecap:round;stroke-linejoin:round;stroke-miterlimit:10;" x1="315.333" y1="268.742" x2="296.333" y2="268.742"/>
		
			<line style="fill:none;stroke:#e887a0;stroke-linecap:round;stroke-linejoin:round;stroke-miterlimit:10;" x1="315.333" y1="264.555" x2="296.333" y2="264.555"/>
		<g>
			<path style="fill:none;stroke:#e887a0;stroke-miterlimit:10;" d="M354,223.868h-32.667c-1.104,0-2-0.895-2-2c0-1.104,0.896-2,2-2
				H354c1.104,0,2,0.896,2,2C356,222.972,355.104,223.868,354,223.868z"/>
		</g>
		<g>
			<path style="fill:none;stroke:#e887a0;stroke-miterlimit:10;" d="M354,235.201h-32.667c-1.104,0-2-0.895-2-2c0-1.104,0.896-2,2-2
				H354c1.104,0,2,0.896,2,2C356,234.305,355.104,235.201,354,235.201z"/>
		</g>
		<g>
			<path style="fill:none;stroke:#e887a0;stroke-miterlimit:10;" d="M354,246.534h-32.667c-1.104,0-2-0.896-2-2c0-1.105,0.896-2,2-2
				H354c1.104,0,2,0.895,2,2C356,245.639,355.104,246.534,354,246.534z"/>
		</g>
		<g>
			<path style="fill:none;stroke:##e887a0;stroke-miterlimit:10;" d="M354,257.868h-32.667c-1.104,0-2-0.896-2-2c0-1.104,0.896-2,2-2
				H354c1.104,0,2,0.896,2,2C356,256.972,355.104,257.868,354,257.868z"/>
		</g>
		<circle style="fill:none;stroke:#e887a0;stroke-miterlimit:10;" cx="369" cy="202.201" r="3.667"/>
		<path style="fill:none;stroke:#e887a0;stroke-miterlimit:10;" d="M396,202.201c0,2.025-1.642,3.667-3.667,3.667
			c-2.025,0-3.667-1.642-3.667-3.667c0-2.025,1.642-3.667,3.667-3.667C394.358,198.534,396,200.176,396,202.201z"/>
		<path style="fill:none;stroke:#e887a0;stroke-miterlimit:10;" d="M419.333,202.201c0,2.025-1.642,3.667-3.667,3.667
			c-2.025,0-3.667-1.642-3.667-3.667c0-2.025,1.642-3.667,3.667-3.667C417.692,198.534,419.333,200.176,419.333,202.201z"/>
		<circle style="fill:none;stroke:#e887a0;stroke-miterlimit:10;" cx="439" cy="202.201" r="3.667"/>
		<polyline style="fill:none;stroke:#e887a0;stroke-width:3;stroke-linejoin:round;stroke-miterlimit:10;" points="269.333,205.742 
			269.333,159.201 238.333,159.201 		"/>
		<g>
			
				<rect x="369.207" y="215.114" style="fill:#e887a0;stroke:#263238;stroke-linecap:round;stroke-linejoin:round;stroke-miterlimit:10;" width="55" height="42.087"/>
			<g>
				
					<line style="fill:none;stroke:#FFFFFF;stroke-linecap:round;stroke-linejoin:round;stroke-miterlimit:10;" x1="396.707" y1="218.427" x2="396.707" y2="230.046"/>
				
					<line style="fill:none;stroke:#FFFFFF;stroke-linecap:round;stroke-linejoin:round;stroke-miterlimit:10;" x1="396.707" y1="241.962" x2="396.707" y2="253.581"/>
				
					<line style="fill:none;stroke:#FFFFFF;stroke-linecap:round;stroke-linejoin:round;stroke-miterlimit:10;" x1="414.284" y1="236.004" x2="402.665" y2="236.004"/>
				
					<line style="fill:none;stroke:#FFFFFF;stroke-linecap:round;stroke-linejoin:round;stroke-miterlimit:10;" x1="390.749" y1="236.004" x2="379.13" y2="236.004"/>
			</g>
		</g>
	</g>
	<g>
		
			<rect x="288.684" y="384" style="fill:none;stroke:#263238;stroke-linecap:round;stroke-linejoin:round;stroke-miterlimit:10;" width="76.316" height="63.393"/>
		<g>
			
				<rect x="295.163" y="389.382" style="fill:#e887a0;stroke:#263238;stroke-linecap:round;stroke-linejoin:round;stroke-miterlimit:10;" width="63.358" height="52.63"/>
			<g>
				
					<line style="fill:none;stroke:#FFFFFF;stroke-linecap:round;stroke-linejoin:round;stroke-miterlimit:10;" x1="310.337" y1="395.866" x2="354.833" y2="395.866"/>
				
					<line style="fill:none;stroke:#FFFFFF;stroke-linecap:round;stroke-linejoin:round;stroke-miterlimit:10;" x1="300.936" y1="395.866" x2="305.01" y2="395.866"/>
				
					<line style="fill:none;stroke:#FFFFFF;stroke-linecap:round;stroke-linejoin:round;stroke-miterlimit:10;" x1="340.105" y1="401.193" x2="354.833" y2="401.193"/>
				
					<line style="fill:none;stroke:#FFFFFF;stroke-linecap:round;stroke-linejoin:round;stroke-miterlimit:10;" x1="312.217" y1="401.193" x2="334.152" y2="401.193"/>
				
					<line style="fill:none;stroke:#FFFFFF;stroke-linecap:round;stroke-linejoin:round;stroke-miterlimit:10;" x1="300.936" y1="401.193" x2="307.517" y2="401.193"/>
				
					<line style="fill:none;stroke:#FFFFFF;stroke-linecap:round;stroke-linejoin:round;stroke-miterlimit:10;" x1="300.936" y1="406.52" x2="354.833" y2="406.52"/>
				
					<line style="fill:none;stroke:#FFFFFF;stroke-linecap:round;stroke-linejoin:round;stroke-miterlimit:10;" x1="333.838" y1="411.846" x2="354.833" y2="411.846"/>
				
					<line style="fill:none;stroke:#FFFFFF;stroke-linecap:round;stroke-linejoin:round;stroke-miterlimit:10;" x1="300.936" y1="411.846" x2="322.558" y2="411.846"/>
				
					<line style="fill:none;stroke:#FFFFFF;stroke-linecap:round;stroke-linejoin:round;stroke-miterlimit:10;" x1="324.438" y1="417.173" x2="354.833" y2="417.173"/>
				
					<line style="fill:none;stroke:#FFFFFF;stroke-linecap:round;stroke-linejoin:round;stroke-miterlimit:10;" x1="300.936" y1="417.173" x2="318.171" y2="417.173"/>
				
					<line style="fill:none;stroke:#FFFFFF;stroke-linecap:round;stroke-linejoin:round;stroke-miterlimit:10;" x1="300.936" y1="422.5" x2="354.833" y2="422.5"/>
				
					<line style="fill:none;stroke:#FFFFFF;stroke-linecap:round;stroke-linejoin:round;stroke-miterlimit:10;" x1="329.451" y1="427.827" x2="354.833" y2="427.827"/>
				
					<line style="fill:none;stroke:#FFFFFF;stroke-linecap:round;stroke-linejoin:round;stroke-miterlimit:10;" x1="300.936" y1="427.827" x2="321.617" y2="427.827"/>
			</g>
		</g>
		<polyline style="fill:none;stroke:#263238;stroke-linecap:round;stroke-linejoin:round;stroke-miterlimit:10;" points="
			320.552,471.205 320.552,447.37 331.385,447.37 331.385,471.176 		"/>
	</g>
	<g>
		
			<rect x="380.298" y="360.449" style="fill:none;stroke:#263238;stroke-linecap:round;stroke-linejoin:round;stroke-miterlimit:10;" width="96.926" height="80.514"/>
		<g>
			
				<rect x="388.526" y="367.284" style="fill:#e887a0;stroke:#e887a0;stroke-linecap:round;stroke-linejoin:round;stroke-miterlimit:10;" width="80.469" height="66.843"/>
			<rect x="390.697" y="383.992" style="opacity:0.35;fill:#FFFFFF;" width="39.511" height="48.849"/>
			<rect x="433.081" y="383.992" style="opacity:0.35;fill:#FFFFFF;" width="35.2" height="5.747"/>
			<rect x="433.081" y="392.373" style="opacity:0.35;fill:#FFFFFF;" width="35.2" height="5.747"/>
			<rect x="433.081" y="400.754" style="opacity:0.35;fill:#FFFFFF;" width="35.2" height="5.747"/>
			<rect x="433.081" y="409.135" style="opacity:0.35;fill:#FFFFFF;" width="35.2" height="5.747"/>
			<rect x="433.081" y="417.516" style="opacity:0.35;fill:#FFFFFF;" width="35.2" height="5.747"/>
			<rect x="390.697" y="371.54" style="opacity:0.35;fill:#FFFFFF;" width="77.105" height="8.381"/>
		</g>
		<polyline style="fill:none;stroke:#263238;stroke-linecap:round;stroke-linejoin:round;stroke-miterlimit:10;" points="
			420.772,471.205 420.772,440.932 434.53,440.932 434.53,471.168 		"/>
	</g>
	<g>
		
			<line style="fill:none;stroke:#263238;stroke-linecap:round;stroke-linejoin:round;stroke-miterlimit:10;" x1="467" y1="471.201" x2="475" y2="471.201"/>
		
			<line style="fill:none;stroke:#263238;stroke-linecap:round;stroke-linejoin:round;stroke-miterlimit:10;" x1="20" y1="471.201" x2="455" y2="471.201"/>
	</g>
</g>
<g id="Bed">
	<path style="fill:#FFFFFF;stroke:#e887a0;stroke-linecap:round;stroke-linejoin:round;stroke-miterlimit:10;" d="M368,451.201H32.5
		c-1.933,0-3.5,1.567-3.5,3.5v13c0,1.933,1.567,3.5,3.5,3.5H368c2.209,0,4-1.791,4-4v-12C372,452.992,370.209,451.201,368,451.201z"
		/>
</g>
<g id="Character">
	<g>
		<path style="fill:#FFFFFF;stroke:#e887a0;stroke-linecap:round;stroke-linejoin:round;stroke-miterlimit:10;" d="M180.202,207.977
			c0,0,4.238-7.947,4.238-13.775c0-5.828-2.384-20.927-2.119-22.251c0.265-1.325,7.152-10.861,7.947-11.92
			c0.795-1.06,7.417-2.649,7.417-2.649l1.06,3.973c0,0-2.914,1.854-4.238,3.179c-1.324,1.325-2.914,5.033-2.914,5.033
			s2.649-2.384,5.033-3.179c2.384-0.795,4.238-1.325,4.238-1.325v9.271c0,0,0.53,9.536-0.53,14.834
			c-1.06,5.298-12.185,22.781-12.45,23.576C187.619,213.54,180.202,207.977,180.202,207.977z"/>
		<g>
			<path style="fill:#e887a0;stroke:#263238;stroke-linecap:round;stroke-linejoin:round;stroke-miterlimit:10;" d="
				M177.023,103.609c0,0,10.066,27.284,14.834,43.707c4.768,16.424,7.682,47.151,7.682,50.86s0,13.51,0,13.51
				s18.013-7.152,44.502-6.357c26.489,0.795,57.747,3.973,57.747,3.973l-4.768-44.237l-9.271-40.794l-8.212-39.469
				C279.537,84.801,197.95,102.02,177.023,103.609z"/>
			<g>
				<path style="opacity:0.4;fill:#FFFFFF;stroke:#FFFFFF;stroke-miterlimit:10;" d="M212.165,102.747c0,0,0,2.732-2.732,6.83
					s-20.489,11.61-20.489,11.61l7.389,32.472l6.27,0.311c0,0,7.513,23.904,8.879,28.685c1.366,4.781,4.781,19.123,4.781,19.123
					s10.927-2.049,23.904-2.732c12.976-0.683,40.295,2.732,40.295,2.732l-3.415-58.735l10.245-2.049l-6.83-34.148l-32.782-6.147
					l-1.366-4.781L212.165,102.747z"/>
				<path style="fill:#263238;" d="M228.798,124.602c0,0-6.8-11.61-15.866-4.781c-9.066,6.83-6.233,25.953-3.967,36.197
					c2.267,10.244,5.1,29.368,6.8,31.416c1.7,2.049,3.966-2.049,5.1-6.147c1.133-4.098,10.766-12.293,10.766-12.293
					s0-15.025,0-21.172S232.198,131.431,228.798,124.602z"/>
				<g>
					<g style="opacity:0.4;">
						<path style="fill:#FFFFFF;stroke:#FFFFFF;stroke-miterlimit:10;" d="M206.702,137.895c-0.307,0-0.609-0.141-0.806-0.406
							c-0.328-0.445-0.233-1.071,0.211-1.398c0.154-0.114,15.554-11.26,27.83-2.044c0.441,0.332,0.53,0.959,0.199,1.4
							c-0.331,0.442-0.959,0.531-1.4,0.199c-11.099-8.334-25.3,1.949-25.441,2.054C207.116,137.831,206.908,137.895,206.702,137.895
							z"/>
					</g>
					<g style="opacity:0.4;">
						<path style="fill:#FFFFFF;stroke:#FFFFFF;stroke-miterlimit:10;" d="M207.383,149.505c-0.211,0-0.424-0.067-0.605-0.204
							c-0.439-0.334-0.524-0.961-0.19-1.4c0.275-0.362,6.843-8.88,15.333-9.341c4.145-0.227,8.001,1.511,11.459,5.161
							c0.38,0.401,0.363,1.034-0.038,1.414c-0.4,0.38-1.034,0.363-1.413-0.038c-3.034-3.202-6.362-4.722-9.892-4.54
							c-7.563,0.406-13.796,8.474-13.857,8.555C207.982,149.369,207.685,149.505,207.383,149.505z"/>
					</g>
					<g style="opacity:0.4;">
						<path style="fill:#FFFFFF;stroke:#FFFFFF;stroke-miterlimit:10;" d="M208.066,159.75c-0.186,0-0.373-0.052-0.54-0.159
							c-0.464-0.299-0.599-0.917-0.3-1.381c0.277-0.432,6.887-10.573,15.061-11.1c3.565-0.234,6.862,1.402,9.766,4.85
							c0.357,0.422,0.302,1.053-0.12,1.409c-0.424,0.355-1.057,0.3-1.409-0.121c-2.471-2.934-5.206-4.33-8.104-4.142
							c-7.166,0.458-13.449,10.088-13.512,10.186C208.717,159.588,208.395,159.75,208.066,159.75z"/>
					</g>
					<g style="opacity:0.4;">
						<path style="fill:#FFFFFF;stroke:#FFFFFF;stroke-miterlimit:10;" d="M211.48,169.995c-0.193,0-0.39-0.056-0.562-0.173
							c-0.456-0.311-0.575-0.933-0.265-1.39c0.258-0.379,6.399-9.285,14.014-9.657c3.479-0.177,6.643,1.445,9.438,4.798
							c0.354,0.424,0.296,1.055-0.128,1.408c-0.427,0.354-1.056,0.296-1.409-0.128c-2.37-2.845-5.003-4.218-7.803-4.081
							c-6.63,0.323-12.399,8.699-12.457,8.784C212.115,169.841,211.801,169.995,211.48,169.995z"/>
					</g>
					<g style="opacity:0.4;">
						<path style="fill:#FFFFFF;stroke:#FFFFFF;stroke-miterlimit:10;" d="M218.313,185.019c-0.014,0-0.027,0-0.042-0.001
							c-0.551-0.022-0.98-0.487-0.958-1.039c0.016-0.387,0.44-9.536,5.79-13.906c2.354-1.923,5.279-2.618,8.689-2.066
							c0.545,0.088,0.915,0.602,0.827,1.147c-0.089,0.544-0.592,0.916-1.148,0.827c-2.82-0.456-5.207,0.094-7.099,1.636
							c-4.651,3.795-5.058,12.356-5.062,12.442C219.288,184.598,218.846,185.019,218.313,185.019z"/>
					</g>
					<g style="opacity:0.4;">
						<path style="fill:#FFFFFF;stroke:#FFFFFF;stroke-miterlimit:10;" d="M229.24,129.699c-0.297,0-0.59-0.131-0.787-0.382
							c-6.907-8.791-19.773-1.861-19.904-1.791c-0.48,0.268-1.092,0.09-1.357-0.394c-0.267-0.484-0.09-1.092,0.395-1.358
							c0.144-0.08,14.493-7.807,22.439,2.307c0.342,0.434,0.266,1.063-0.168,1.404C229.674,129.629,229.456,129.699,229.24,129.699z
							"/>
					</g>
				</g>
				<path style="fill:#263238;" d="M242.494,120.457c0,0,4.248-13.02,15.296-8.729c11.047,4.291,12.724,23.58,12.845,34.106
					c0.122,10.526,1.798,29.814,0.53,32.241c-1.268,2.426-4.607-0.966-6.77-4.651c-2.164-3.685-14.128-9.155-14.128-9.155
					s-3.625-14.581-5.108-20.546C243.676,137.757,240.617,127.962,242.494,120.457z"/>
				<g>
					<g style="opacity:0.4;">
						<path style="fill:#FFFFFF;stroke:#FFFFFF;stroke-miterlimit:10;" d="M242.264,130.901c-0.239,0-0.479-0.085-0.67-0.257
							c-0.41-0.37-0.442-1.002-0.073-1.412c10.277-11.403,27.532-3.422,27.704-3.34c0.499,0.236,0.712,0.832,0.476,1.331
							c-0.234,0.499-0.83,0.713-1.331,0.477c-0.158-0.075-16.088-7.42-25.362,2.871C242.81,130.789,242.537,130.901,242.264,130.901
							z"/>
					</g>
					<g style="opacity:0.4;">
						<path style="fill:#FFFFFF;stroke:#FFFFFF;stroke-miterlimit:10;" d="M244.77,140.153c-0.184,0-0.368-0.05-0.534-0.155
							c-0.467-0.296-0.605-0.914-0.31-1.38c2.692-4.246,6.143-6.69,10.254-7.265c8.429-1.179,16.502,5.919,16.842,6.222
							c0.412,0.367,0.449,0.999,0.082,1.411c-0.365,0.412-0.996,0.45-1.412,0.083c-0.075-0.068-7.732-6.789-15.242-5.734
							c-3.5,0.492-6.473,2.63-8.834,6.355C245.425,139.989,245.101,140.153,244.77,140.153z"/>
					</g>
					<g style="opacity:0.4;">
						<path style="fill:#FFFFFF;stroke:#FFFFFF;stroke-miterlimit:10;" d="M271.654,149.505c-0.263,0-0.525-0.103-0.722-0.307
							c-0.079-0.083-8.074-8.321-15.216-7.4c-2.888,0.376-5.296,2.268-7.157,5.622c-0.269,0.483-0.874,0.657-1.359,0.389
							c-0.482-0.268-0.657-0.877-0.389-1.36c2.187-3.941,5.098-6.174,8.652-6.635c8.113-1.046,16.558,7.629,16.912,8
							c0.382,0.398,0.369,1.031-0.029,1.413C272.153,149.413,271.903,149.505,271.654,149.505z"/>
					</g>
					<g style="opacity:0.4;">
						<path style="fill:#FFFFFF;stroke:#FFFFFF;stroke-miterlimit:10;" d="M270.271,160.215c-0.254,0-0.508-0.096-0.703-0.289
							c-0.073-0.072-7.364-7.188-13.917-6.228c-2.778,0.406-5.09,2.257-6.869,5.503c-0.265,0.485-0.872,0.662-1.357,0.396
							c-0.484-0.266-0.662-0.874-0.396-1.357c2.099-3.828,4.904-6.022,8.34-6.522c7.554-1.1,15.28,6.463,15.606,6.786
							c0.393,0.388,0.395,1.021,0.008,1.413C270.786,160.116,270.528,160.215,270.271,160.215z"/>
					</g>
					<g style="opacity:0.4;">
						<path style="fill:#FFFFFF;stroke:#FFFFFF;stroke-miterlimit:10;" d="M266.453,176.272c-0.452,0-0.862-0.309-0.972-0.768
							c-0.02-0.084-2.063-8.407-7.357-11.239c-2.151-1.151-4.602-1.232-7.28-0.242c-0.517,0.192-1.094-0.073-1.284-0.591
							c-0.192-0.518,0.073-1.093,0.591-1.285c3.243-1.198,6.245-1.077,8.924,0.358c6.089,3.262,8.264,12.159,8.353,12.536
							c0.128,0.537-0.204,1.076-0.741,1.204C266.608,176.264,266.53,176.272,266.453,176.272z"/>
					</g>
					<g style="opacity:0.4;">
						<path style="fill:#FFFFFF;stroke:#FFFFFF;stroke-miterlimit:10;" d="M245.104,124.081c-0.153,0-0.309-0.035-0.454-0.11
							c-0.492-0.251-0.687-0.854-0.436-1.345c5.855-11.45,21.422-6.625,21.579-6.575c0.525,0.168,0.815,0.73,0.647,1.256
							c-0.168,0.526-0.73,0.816-1.256,0.649c-0.574-0.183-14.108-4.355-19.19,5.58C245.818,123.883,245.467,124.081,245.104,124.081
							z"/>
					</g>
				</g>
				<g style="opacity:0.4;">
					<path style="fill:#FFFFFF;stroke:#FFFFFF;stroke-miterlimit:10;" d="M231.289,126.968c-0.018,0-0.035,0-0.054-0.001
						c-0.535-0.028-13.202-0.721-22.097-3.458c-8.325-2.56-14.118,1.204-14.176,1.242c-0.461,0.306-1.081,0.182-1.387-0.277
						c-0.307-0.46-0.183-1.081,0.277-1.387c0.268-0.178,6.651-4.328,15.873-1.489c8.661,2.665,21.485,3.365,21.614,3.372
						c0.552,0.029,0.975,0.499,0.946,1.051C232.259,126.554,231.817,126.968,231.289,126.968z"/>
				</g>
				<g style="opacity:0.4;">
					<path style="fill:#FFFFFF;stroke:#FFFFFF;stroke-miterlimit:10;" d="M238.8,126.285c-0.461,0-0.876-0.321-0.977-0.79
						c-0.116-0.54,0.228-1.072,0.768-1.188c0.094-0.021,9.449-2.066,16.027-6.671c6.81-4.767,19.243-7.693,25.16-7.693
						c0.553,0,1,0.448,1,1c0,0.552-0.447,1-1,1c-5.653,0-17.523,2.789-24.014,7.332c-6.915,4.841-16.355,6.903-16.754,6.988
						C238.939,126.278,238.869,126.285,238.8,126.285z"/>
				</g>
				<path style="opacity:0.4;fill:#FFFFFF;stroke:#FFFFFF;stroke-miterlimit:10;" d="M226.507,100.015c0,0,2.12,12.327,3.415,18.44
					C233,132.992,239,180.211,239,184.992c0,4.781-1.566,13.354-1.566,13.354l9.562-0.667l-8.196-65.565l-4.467-23.789l-1.098-9.627
					L226.507,100.015z"/>
				<path style="opacity:0.4;fill:#FFFFFF;stroke:#FFFFFF;stroke-miterlimit:10;" d="M232.736,135.646
					c0,0-2.403,16.679-2.403,22.012s4,8,8,9.333c4,1.333,15.333,2.667,15.333-0.667c0-3.333-1.333-15.333-1.333-15.333l-4.667-6.667
					c0,0-0.664-9.447-4.66-13.755C239.011,126.263,231.806,122.967,232.736,135.646z"/>
				<path style="opacity:0.4;fill:#FFFFFF;stroke:#FFFFFF;stroke-miterlimit:10;" d="M272.132,200.689
					c0,0,4.868-16.363-14.465-25.03c-19.333-8.667-21.865-5.629-29.333,0c-7.468,5.629-8,17.333-8,17.333l0.667,8
					C221,200.992,240.893,196.449,272.132,200.689z"/>
			</g>
		</g>
		<path style="fill:#263238;stroke:#263238;stroke-linecap:round;stroke-linejoin:round;stroke-miterlimit:10;" d="M142.057,253.274
			c0,0,3.973-9.006,15.099-19.867c11.126-10.861,21.721-25.96,21.721-25.96l1.324-1.325c0,0,1.06-1.059,6.622,1.325
			c5.563,2.384,7.682,6.357,7.682,6.357s-4.238,8.477-9.271,17.218c-5.033,8.742-11.39,19.072-12.45,22.251
			c-1.059,3.179-3.708,7.947-3.973,8.741c-0.265,0.795-13.774,4.238-20.927,2.649C140.733,263.075,138.084,259.366,142.057,253.274z
			"/>
		<g>
			<path style="fill:#FFFFFF;stroke:#263238;stroke-linecap:round;stroke-linejoin:round;stroke-miterlimit:10;" d="
				M146.683,181.847c0,0,1.884,3.453,4.709,5.023c2.826,1.57,10.046,0.628,10.046,4.081c0,3.453-5.023,9.104-5.023,10.046
				c0,0.942,2.198,14.127,2.198,18.837c0,4.709,0,5.651-2.826,7.535c-2.825,1.884-11.616,2.512-11.616,2.512
				s-2.198,10.988-2.198,15.697c0,4.709,1.256,7.535,1.256,7.535s-12.558,3.767-20.092,3.767c-7.535,0-22.29-3.767-22.29-3.767
				s5.337-3.139,2.198-11.93c-3.139-8.79-20.72-31.394-12.244-48.661s31.394-17.267,38.615-16.953
				C136.637,175.882,146.683,181.847,146.683,181.847z"/>
			<path style="fill:none;stroke:#263238;stroke-linecap:round;stroke-linejoin:round;stroke-miterlimit:10;" d="M149.822,190.323
				l2.512,2.198c0,0-0.314,3.767-3.453,3.767"/>
		</g>
		<g>
			<path style="fill:#A3A3A3;stroke:#263238;stroke-linecap:round;stroke-linejoin:round;stroke-miterlimit:10;" d="
				M147.625,172.428c0,0,1.884,8.79-1.884,23.86s-6.593,17.581-6.593,17.581s0.628,3.767,2.512,5.965
				c1.884,2.198,4.709,2.198,4.709,2.198s-0.314,2.511-1.884,3.767c-1.57,1.256-3.767,1.884-3.767,1.884s0.314,1.256,1.57,2.198
				c1.256,0.942,3.453,0.942,3.453,0.942s0,2.512-4.081,5.651c-4.081,3.139-9.104,2.511-9.104,2.511l3.139,3.14
				c0,0-0.628,2.197-6.907,4.395c-6.279,2.198-9.732,0.314-9.732,0.314l0.628,2.826c0,0-7.849,1.884-9.418,0.314
				c-1.57-1.57-4.395-4.395-4.395-4.395l-0.628,4.395l-5.965-0.942l-6.593-2.826c0,0,3.453-0.628,3.767-2.511
				c0.314-1.884-0.314-3.767-2.512-5.337c-2.198-1.57-16.325-9.104-18.836-19.464c-2.512-10.36,3.139-31.708,10.046-40.185
				c6.907-8.476,15.069-10.046,15.069-10.046s12.558-9.418,24.801-9.418C137.265,159.243,143.23,157.673,147.625,172.428z"/>
			<g>
				<path style="fill:none;stroke:#263238;stroke-linecap:round;stroke-linejoin:round;stroke-miterlimit:10;" d="M140.404,206.334
					c0,0-4.081,11.302-9.732,18.209"/>
				<path style="fill:none;stroke:#263238;stroke-linecap:round;stroke-linejoin:round;stroke-miterlimit:10;" d="M131.614,207.59
					c0,0-2.198,11.302-7.221,19.778"/>
				<path style="fill:none;stroke:#263238;stroke-linecap:round;stroke-linejoin:round;stroke-miterlimit:10;" d="M101.789,171.486
					c0,0-10.988,5.337-15.069,18.523"/>
				<path style="fill:none;stroke:#263238;stroke-linecap:round;stroke-linejoin:round;stroke-miterlimit:10;" d="M98.336,178.393
					c0,0,3.453-8.79,16.953-8.79"/>
				<path style="fill:none;stroke:#263238;stroke-linecap:round;stroke-linejoin:round;stroke-miterlimit:10;" d="M87.348,199.427
					c0,0-1.884,11.616,4.081,25.429"/>
				<path style="fill:none;stroke:#263238;stroke-linecap:round;stroke-linejoin:round;stroke-miterlimit:10;" d="M94.624,218.357
					c1.713,4.789,4.509,10.307,8.735,13.721"/>
				<path style="fill:none;stroke:#263238;stroke-linecap:round;stroke-linejoin:round;stroke-miterlimit:10;" d="M92.371,209.16
					c0,0.622,0.308,2.61,1.013,5.233"/>
				<path style="fill:none;stroke:#263238;stroke-linecap:round;stroke-linejoin:round;stroke-miterlimit:10;" d="M119.843,225.558
					c-0.511,1.112-1.085,2.143-1.729,3.066"/>
				<path style="fill:none;stroke:#263238;stroke-linecap:round;stroke-linejoin:round;stroke-miterlimit:10;" d="M123.765,194.404
					c0,0,0.997,15.156-2.254,26.554"/>
			</g>
		</g>
		<path style="fill:#FFFFFF;stroke:#263238;stroke-linecap:round;stroke-linejoin:round;stroke-miterlimit:10;" d="M190.268,177.249
			c0,0,5.298-7.152,6.887-9.801c1.589-2.649,3.709-8.212,3.973-9.536c0.265-1.324,2.649-2.119,3.179,3.179
			c0.53,5.298-1.854,11.39-3.444,13.245c-1.589,1.854-1.854,3.444-1.854,3.444s0.795,8.477-0.53,12.185
			c-1.324,3.708-2.649,5.298-2.649,5.298"/>
		<g>
			<path style="fill:#FFFFFF;stroke:#263238;stroke-linecap:round;stroke-linejoin:round;stroke-miterlimit:10;" d="
				M290.133,203.474c0,0,2.914-7.947,2.914-10.861c0-2.914-1.854-7.417-2.649-10.331c-0.795-2.914-2.119-11.39-2.384-14.304
				c-0.265-2.914-0.53-5.828-0.53-10.066c0-4.238-0.265-6.887,2.119-5.033c2.384,1.854,2.384,5.563,2.119,8.212
				c-0.265,2.649-0.265,3.179,0.53,4.503c0.795,1.325,3.179,4.238,3.179,4.238s0.53-7.417,0.53-8.477s-2.649-11.39-2.649-11.39
				s4.238-3.179,5.298,0.265c1.06,3.444,1.854,3.444,2.914,5.563c1.06,2.119,3.444,5.033,6.092,7.417
				c2.649,2.384,4.503,6.887,3.708,10.331s-5.563,20.397-6.622,25.165s-2.914,10.596-2.914,10.596L290.133,203.474z"/>
			<path style="fill:none;stroke:#263238;stroke-linecap:round;stroke-linejoin:round;stroke-miterlimit:10;" d="M300.728,154.733
				c0,0,2.649,4.238,2.649,7.947"/>
			<path style="fill:none;stroke:#263238;stroke-linecap:round;stroke-linejoin:round;stroke-miterlimit:10;" d="M296.225,151.82
				c0,0-0.795,5.033-0.265,7.947"/>
		</g>
		<path style="fill:#263238;stroke:#263238;stroke-linecap:round;stroke-linejoin:round;stroke-miterlimit:10;" d="M238.251,261.905
			l17.453-4.174c0,0,14.797-21.627,22.006-32.63c7.209-11.003,13.28-25.421,13.28-25.421s7.209,1.897,9.486,3.035
			c2.277,1.138,7.588,8.727,7.588,8.727s-12.142,25.421-17.453,46.289c-5.312,20.868-11.762,31.112-15.556,32.63
			c-3.794,1.518-33.389,7.588-33.389,7.588S241.665,271.011,238.251,261.905z"/>
		<g>
			<path style="fill:#6d28d9;stroke:#263238;stroke-linecap:round;stroke-linejoin:round;stroke-miterlimit:10;" d="M79.046,421.246
				c0,0-4.043,10.684-4.043,25.122c0,14.438,2.021,24.833,2.021,24.833h115.503c0,0,4.331-20.791,4.043-45.624l-0.289-7.796
				c0,0-75.655-4.62-92.114-7.219c-16.459-2.599-19.636-2.888-19.636-2.888L79.046,421.246z"/>
			<path style="fill:#263238;stroke:#263238;stroke-linecap:round;stroke-linejoin:round;stroke-miterlimit:10;" d="
				M105.067,434.059c0,0,26.234,9.081,45.406,9.081c19.171,0,35.988,0,35.988,0l4.372-4.036l1.345,3.7h3.363l3.363-24.889
				l-13.117-1.009L105.067,434.059z"/>
			<g>
				<path style="fill:none;stroke:#263238;stroke-linecap:round;stroke-linejoin:round;stroke-miterlimit:10;" d="M187.295,445.3
					c-0.74,6.466-2.243,16.034-5.111,22.998"/>
				<path style="fill:none;stroke:#263238;stroke-linecap:round;stroke-linejoin:round;stroke-miterlimit:10;" d="M187.935,438.192
					c0,0-0.062,1.138-0.227,3.025"/>
				<path style="fill:none;stroke:#263238;stroke-linecap:round;stroke-linejoin:round;stroke-miterlimit:10;" d="M101.337,433.456
					c0,0-1.691,5.074-2.368,9.81"/>
				<path style="fill:none;stroke:#263238;stroke-linecap:round;stroke-linejoin:round;stroke-miterlimit:10;" d="M174.411,461.592
					c-1.434,0.171-2.545,0.279-3.051,0.279"/>
				<path style="fill:none;stroke:#263238;stroke-linecap:round;stroke-linejoin:round;stroke-miterlimit:10;" d="M189.288,459.503
					c0,0-5.572,0.848-10.555,1.529"/>
				
					<line style="fill:none;stroke:#263238;stroke-linecap:round;stroke-linejoin:round;stroke-miterlimit:10;" x1="182.523" y1="457.812" x2="173.051" y2="459.165"/>
			</g>
		</g>
		<g>
			<path style="fill:#6d28d9;stroke:#263238;stroke-linecap:round;stroke-linejoin:round;stroke-miterlimit:10;" d="M86.406,260.96
				c0,0-7.221,6.907-9.104,10.046c-1.884,3.139-1.57,14.441-1.57,20.406c0,5.965-1.884,16.011,1.256,24.801
				c3.139,8.79,6.907,17.581,6.907,17.581s10.36,32.964,10.988,37.359c0.628,4.395-13.186,37.673-14.755,43.638
				c-1.57,5.965-2.198,9.418-2.198,9.418s14.127,6.593,36.417,12.244c22.29,5.651,58.079,3.453,64.672,2.512
				c6.593-0.942,6.593-0.942,6.593-0.942l3.767-14.441l2.826,13.814c0,0,5.965-0.942,9.732-2.826s7.535-5.337,7.535-5.337
				s-8.79-37.673-10.36-46.777c-1.57-9.104-5.337-22.604-5.023-32.65c0.314-10.046,2.198-35.789,2.198-35.789l42.068-1.884h3.139
				c0,0,5.023-26.371,3.139-36.731c-1.884-10.36-4.709-14.441-4.709-14.441s-33.592,1.884-37.359,1.884s-24.174-4.081-28.569-4.081
				c-4.395,0-21.662,2.198-21.662,2.198s-16.639,0.628-32.964,0.628c-16.325,0-29.197-2.826-29.197-2.826L86.406,260.96z"/>
			<g>
				<path style="fill:none;stroke:#263238;stroke-linecap:round;stroke-linejoin:round;stroke-miterlimit:10;" d="M104.365,310.479
					c0.014,1.297,0.094,2.583,0.25,3.851"/>
				<path style="fill:none;stroke:#263238;stroke-linecap:round;stroke-linejoin:round;stroke-miterlimit:10;" d="M115.289,274.773
					c0,0-8.508,14.318-10.509,29.289"/>
				<path style="fill:none;stroke:#263238;stroke-linecap:round;stroke-linejoin:round;stroke-miterlimit:10;" d="M106.498,280.111
					c0,0-6.907,13.499-5.651,30.138"/>
				
					<line style="fill:none;stroke:#263238;stroke-linecap:round;stroke-linejoin:round;stroke-miterlimit:10;" x1="166.775" y1="316.214" x2="196.286" y2="314.016"/>
				<path style="fill:none;stroke:#263238;stroke-linecap:round;stroke-linejoin:round;stroke-miterlimit:10;" d="M190.007,314.958
					c0,0-19.778,12.872-24.801,14.441"/>
				<path style="fill:none;stroke:#263238;stroke-linecap:round;stroke-linejoin:round;stroke-miterlimit:10;" d="M169.3,344.722
					c-1.073,1.155-2.133,2.141-3.153,2.886"/>
				<path style="fill:none;stroke:#263238;stroke-linecap:round;stroke-linejoin:round;stroke-miterlimit:10;" d="M184.984,320.295
					c0,0-6.304,12.608-12.928,21.153"/>
				<path style="fill:none;stroke:#263238;stroke-linecap:round;stroke-linejoin:round;stroke-miterlimit:10;" d="M139.776,300.831
					c0,0,4.395,14.441,13.813,21.034"/>
				<path style="fill:none;stroke:#263238;stroke-linecap:round;stroke-linejoin:round;stroke-miterlimit:10;" d="M139.462,315.272
					c0,0,6.279,6.279,11.302,8.79"/>
				<path style="fill:none;stroke:#263238;stroke-linecap:round;stroke-linejoin:round;stroke-miterlimit:10;" d="M138.072,381.642
					c0.781,0.531,1.559,1.014,2.333,1.442"/>
				<path style="fill:none;stroke:#263238;stroke-linecap:round;stroke-linejoin:round;stroke-miterlimit:10;" d="M109.01,346.666
					c0,0,12.649,21.48,25.67,32.393"/>
			</g>
		</g>
		<path style="fill:#263238;stroke:#263238;stroke-linecap:round;stroke-linejoin:round;stroke-miterlimit:10;" d="M190.683,314.596
			l0.395-0.233l-5.745,0.547l-2.065,0.121l-0.012,0.076l-13.109,1.249l12.459,2.99l-0.012,0.521c0.773,0.649,1.943,2.29-0.123,5.512
			l11.808,15.474l2.121-23.832l0.398-2.786L190.683,314.596z"/>
		<path style="fill:#6d28d9;stroke:#263238;stroke-linecap:round;stroke-linejoin:round;stroke-miterlimit:10;" d="M93.313,247.46
			c0,0,8.79,4.709,28.255,4.395c19.464-0.314,22.604-2.512,25.115-2.198c2.512,0.314,7.535,10.988,7.535,10.988
			s-9.104,5.651-30.452,5.965c-21.348,0.314-37.359-5.651-37.359-5.651S91.115,247.46,93.313,247.46z"/>
	</g>
</g>
</svg>
